<svg xmlns="http://www.w3.org/2000/svg" xmlns:xlink="http://www.w3.org/1999/xlink" version="1.2" width="26.28mm" height="21.47mm" viewBox="0.0000 -0.0000 14.9534 12.2156">
<style type="text/css">
<![CDATA[
tspan { white-space: pre; }
]]>
</style>
<g transform="translate(0.0000, 8.0000)">
<line stroke-linejoin="round" stroke-linecap="round" stroke-width="0.1000" stroke="currentColor" x1="0.0500" y1="0" x2="14.9034" y2="0"/>
</g>
<g transform="translate(0.0000, 7.0000)">
<line stroke-linejoin="round" stroke-linecap="round" stroke-width="0.1000" stroke="currentColor" x1="0.0500" y1="0" x2="14.9034" y2="0"/>
</g>
<g transform="translate(0.0000, 6.0000)">
<line stroke-linejoin="round" stroke-linecap="round" stroke-width="0.1000" stroke="currentColor" x1="0.0500" y1="0" x2="14.9034" y2="0"/>
</g>
<g transform="translate(0.0000, 5.0000)">
<line stroke-linejoin="round" stroke-linecap="round" stroke-width="0.1000" stroke="currentColor" x1="0.0500" y1="0" x2="14.9034" y2="0"/>
</g>
<g transform="translate(0.0000, 4.0000)">
<line stroke-linejoin="round" stroke-linecap="round" stroke-width="0.1000" stroke="currentColor" x1="0.0500" y1="0" x2="14.9034" y2="0"/>
</g>
<g transform="translate(14.7634, 6.0000)">
<rect x="0.0000" y="-2.0000" width="0.1900" height="4.0000" ry="0.0000" fill="currentColor"/>
</g>
<g transform="translate(8.7034, 6.5000)">
<path transform="scale(0.0040, -0.0040)" d="M347 -26c0 102 -89 139 -133 139c-23 0 -70 -10 -70 -89c0 -91 76 -136 132 -136c22 0 71 8 71 86zM245 136c144 0 246 -65 246 -136s-102 -136 -246 -136s-245 65 -245 136s101 136 245 136z" fill="currentColor"/>
</g>
<g transform="rotate(-90.0000, 9.6844, 2.5375)">
<g transform="translate(9.5344, 2.5375)">
<path fill="none" stroke="currentColor" stroke-width="0.1250" stroke-linejoin="round" stroke-linecap="round" d="M0.4000 -0.6928A0.8000 0.8000 0 1 0 0.8000 -0.0000"/>
</g>
<g transform="translate(9.5344, 2.5375)">
<path stroke-width="0.1250" stroke-linejoin="round" stroke-linecap="round" stroke="currentColor" fill="currentColor" d="M0.8000 -0.3500L1.1000 -0.0000L0.5000 -0.0000z"/>
</g>
</g>
<g transform="translate(0.8000, 5.0000)">
<path transform="scale(0.0040, -0.0040)" d="M557 -125c0 28 23 51 51 51s51 -23 51 -51s-23 -51 -51 -51s-51 23 -51 51zM557 125c0 28 23 51 51 51s51 -23 51 -51s-23 -51 -51 -51s-51 23 -51 51zM232 263c172 0 293 -88 293 -251c0 -263 -263 -414 -516 -521c-3 -3 -6 -4 -9 -4c-7 0 -13 6 -13 13c0 3 1 6 4 9
c202 118 412 265 412 493c0 120 -63 235 -171 235c-74 0 -129 -54 -154 -126c11 5 22 8 34 8c55 0 100 -45 100 -100c0 -58 -44 -106 -100 -106c-60 0 -112 47 -112 106c0 133 102 244 232 244z" fill="currentColor"/>
</g>
<g transform="translate(5.0034, 6.0000)">
<path transform="scale(0.0040, -0.0040)" d="M433 -89c0 -22 -50 -174 -183 -174c-59 0 -250 19 -250 263c0 62 18 262 250 262c116 0 176 -106 176 -163c0 -40 -30 -72 -67 -72c-31 0 -75 25 -75 75c0 38 27 77 72 77c4 0 9 0 14 -1c-28 37 -72 59 -120 59c-106 0 -113 -73 -113 -186v-51v-51
c0 -113 7 -187 113 -187c80 0 139 70 158 151c2 7 7 10 12 10c6 0 13 -4 13 -12z" fill="currentColor"/>
</g>
</svg>
